<svg xmlns="http://www.w3.org/2000/svg" version="1.1" xmlns:xlink="http://www.w3.org/1999/xlink" xmlns:svgjs="http://svgjs.dev/svgjs" width="1500" height="1500" viewBox="0 0 1500 1500"><rect width="1500" height="1500" fill="#ffffff"></rect><g transform="matrix(0.6666666666666666,0,0,0.6666666666666666,250.00007343750008,187.66666666666674)"><svg viewBox="0 0 320 360" data-background-color="#bdbfde" preserveAspectRatio="xMidYMid meet" height="1687" width="1500" xmlns="http://www.w3.org/2000/svg" xmlns:xlink="http://www.w3.org/1999/xlink"><g id="tight-bounds" transform="matrix(1,0,0,1,0.000023499999997511622,0)"><svg viewBox="0 0 320 360" height="360" width="320"><g><svg></svg></g><g><svg viewBox="0 0 320 360" height="360" width="320"><g><path transform="translate(-74.99272,-51.79039) scale(4.65793,4.65793)" d="M20.6 59.9l0.8 1-0.4-1.3c-0.1-0.6-0.8 0.1-0.4 0.3M21.5 59.3c0.3 0.5 0.6 1 0.6 1.5 0 0.7 0.6 1 1.1 1.2-0.7-0.8-1.1-3-1.7-2.7M59.9 16.9c1.7 0 3.3-0.2 5.1 0.2 4.4 1.1 8.1 3.3 10.6 6.4l7 11.2c0.3 2.8 0.9 5.9 0.8 9.3 0.7 0 0.6-1 1.4-1.2-0.8 2-1.2 4.5-1.4 7.4-0.5-1.6 0-4 0.1-5.3-0.7 1.1-1.1 0.3-1.1-0.2 0.1-0.8-0.3-0.7-0.6-1-1.1-1-1.8-2.1-2.6-3.8 0.5-1.3 0.6-3.2-1-4.2-0.5-0.3-1.1-0.8-1.4-1.6-0.4-1.1-1.1-2.4-0.9-4.1 0.1-0.5-1.5 1.1-2.4 0.4-3.9-2.7-7.8-5.8-12.5-8.4-2.5 0-4.3-0.9-5.2-2-0.8-1-0.2-2.3 1-2.4 0.7 0 1.5-0.2 2.1 0.2 0.1-0.4 0.5-0.9 1-0.9M50 14.6l0.2 0.1c1 0.2 1.5 1.6 2.6 1.1 0 0.7 0.1 1.4-0.1 1.9-0.3 0.8-1.2 0.8-1.9 0.8-6.7-0.4-10.6 2.4-14.7 4.8-1.1 0.7-2.3 1.2-3.2 2.1-4.3 4-9 7.7-10.1 15.1l-0.9 8.2c-0.1 0.9-1.1 1.8-0.9 2.9l0.7 4.9c-0.7-0.7-1.1 0.2-0.9 0.6 0.1 0.3 0.5 1.3 1.1 0.4 0.8 1.5 1.6 4.4 2.7 5.7 3.4 4 7.8 7.6 11.4 11.2 0.9-0.2 1.6-0.2 1.8-0.8 0.3 0.6-0.3 1.2-0.8 1.3 1.6 1 3.4 1.9 5.8 2.1 3.1 0.2 6 0.7 8.7 1.4 1.4-0.4 2.8-0.6 4.3-0.7 0.5 0 0.8-0.8 1.4-1l0.1-1c0.6 0.9 0.5-0.3 0.1-0.9 0.7 0.6 0.9 1.1 1.2 1.5 0-0.3 0.8-1.4 0.8-0.1l0.2-1.3c0.3-0.2 0.4 1.1 0.7 0.2 0.3-0.9 0.9-0.2 1.5-0.5-0.2 0.4-0.1 1.2 0.6 0.7l0.8-0.7c0.5 1.2 1.3 0.7 1.7 0.5 4.4-2.8 8.8-6.1 13-9.4l-0.1 1.3 0.5-1.6c0.5 0.5 0.9 0.1 1.1-0.2 0.6-1 1.4-2 2.7-2.9-1.6 4.3-3.5 7.7-5.9 10.5l-1 1.2c0 0.7-0.2 1.6-1 1.7-0.4 0.1-1.2-0.2-1.8 0.4-0.3 0.4 0.7 1.2-0.1 0.6-0.7-0.5-1.4 0-2.2 0.2-0.6 0.2 0.4 0.8 0.6 1.2 0.2 0.4 0.4 0.8 0.3 1.3l-1.1-1.2c-1.3 0.7-2.1 2-3.2 3-0.5 0.4-0.3 1.1-0.3 1.7-0.7 0-1.5-0.2-1.9 0.2-0.3 0.4-0.2 1-0.2 1.6-1-0.1-1.1-1.6-2-1.3-0.9 0.2-1.9 0.3-2.7 0.8 0.6 1.2-1 0.5-0.8 0.7-1.5-0.9-2.8-1.6-4.4-1-3.4-1.1-7.6-0.6-10.7-0.2 0-0.5 0.1-1-0.1-1.1-0.2 0.5-0.8 0.3-0.7 0.3-1.9-1.3-3.8-2.1-5.8-3.2-1.8 0.2-3.5-0.7-4-1.2-1.4-1.3-3-0.6-4.3-0.9-2.8-0.7-3.8-3.6-4.1-5.6-0.2-1-1-1.4-1.3-1.3-1.3-4.2-3.3-8-4.9-11.9-0.4-1-0.3-2-0.3-3.1 0.5 0.2 1 0.1 0.9-0.6-0.5-3.3-1.7-5.8-3-8.2 0.7-3.4 0.8-7.4 2.4-10.4 1.4-2.7 4-4.1 5.8-6.4 0.6-0.8 0.6-1.9 1.2-2.6 2-2 4-4.1 6.2-5.9 1-0.8 2.2 0 3.7-0.3 0.5-1.8 2.5-3.4 4.4-2.9 0.8 0.2 2.4-1.9 2.9-2.1 0.8-0.3 0.4 0.8 0.4 1.5 1.9-1.5 4.5-2.3 6.9-3.2" fill="#000000" fill-rule="nonzero" stroke="none" stroke-width="1" stroke-linecap="butt" stroke-linejoin="miter" stroke-miterlimit="10" stroke-dasharray="" stroke-dashoffset="0" font-family="none" font-weight="none" font-size="none" text-anchor="none" style="mix-blend-mode: normal" data-fill-palette-color="tertiary"></path></g><g transform="matrix(1,0,0,1,64,128.65659941074063)"><svg viewBox="0 0 192 102.68680117851872" height="102.68680117851872" width="192"><g><svg viewBox="0 0 192 102.68680117851872" height="102.68680117851872" width="192"><g><svg viewBox="0 0 192 102.68680117851872" height="102.68680117851872" width="192"><g transform="matrix(1,0,0,1,0,61.02425416910156)"><svg viewBox="0 0 192 41.66254700941715" height="41.66254700941715" width="192"><g id="textblocktransform"><svg viewBox="0 0 192 41.66254700941715" height="41.66254700941715" width="192" id="textblock"><g><svg viewBox="0 0 192 23.619241537286843" height="23.619241537286843" width="192"><g transform="matrix(1,0,0,1,0,0)"><svg width="192" viewBox="2.61 -35.16 287.75 35.4" height="23.619241537286843" data-palette-color="#58454b"><path d="M2.61 0L2.61 0Q2.76-0.61 2.87-1.48 2.98-2.34 2.98-3.27L2.98-3.27Q2.98-4.13 2.86-4.94 2.73-5.76 2.61-6.35L2.61-6.35Q4.22-6.35 5.19-6.73 6.15-7.1 6.67-8 7.18-8.89 7.34-10.38 7.5-11.87 7.5-14.06L7.5-14.06Q7.5-15.75 7.08-16.78 6.67-17.82 6.1-17.94L6.1-17.94Q6.59-18.09 6.96-18.73 7.32-19.36 7.56-20.37 7.79-21.39 7.91-22.73 8.03-24.07 8.03-25.66L8.03-25.66Q8.03-26.64 7.71-27.25 7.4-27.86 6.86-28.21 6.32-28.56 5.6-28.69 4.88-28.81 4.05-28.81L4.05-28.81 3.59-28.81Q3.71-29.39 3.83-30.16 3.96-30.93 3.96-31.79L3.96-31.79Q3.96-32.69 3.85-33.62 3.74-34.55 3.59-35.16L3.59-35.16Q4.03-34.99 4.92-34.84 5.81-34.69 6.97-34.57 8.13-34.45 9.42-34.38 10.72-34.3 11.96-34.3L11.96-34.3Q13.38-34.3 14.64-34.38 15.89-34.45 16.94-34.57 17.99-34.69 18.79-34.84 19.58-34.99 20.07-35.16L20.07-35.16Q20.09-34.4 20.46-33.14 20.83-31.88 21.41-30.37 22-28.86 22.74-27.2 23.49-25.54 24.26-24 25.02-22.46 25.77-21.14 26.51-19.82 27.1-18.99L27.1-18.99Q27.69-19.82 28.43-21.14 29.17-22.46 29.94-24 30.71-25.54 31.46-27.2 32.2-28.86 32.79-30.37 33.37-31.88 33.74-33.14 34.11-34.4 34.13-35.16L34.13-35.16Q34.59-34.99 35.4-34.83 36.21-34.67 37.26-34.56 38.31-34.45 39.58-34.38 40.84-34.3 42.24-34.3L42.24-34.3Q43.48-34.3 44.78-34.38 46.07-34.45 47.23-34.57 48.39-34.69 49.28-34.84 50.17-34.99 50.61-35.16L50.61-35.16Q50.46-34.55 50.35-33.62 50.24-32.69 50.24-31.79L50.24-31.79Q50.24-30.93 50.37-30.16 50.49-29.39 50.61-28.81L50.61-28.81 50.15-28.81Q49.32-28.81 48.6-28.69 47.88-28.56 47.34-28.21 46.8-27.86 46.48-27.25 46.17-26.64 46.17-25.66L46.17-25.66Q46.17-24.07 46.28-22.73 46.39-21.39 46.63-20.37 46.88-19.36 47.24-18.73 47.61-18.09 48.1-17.94L48.1-17.94Q47.53-17.82 47.12-16.78 46.7-15.75 46.7-14.06L46.7-14.06Q46.7-12.87 46.96-11.89 47.22-10.91 47.39-9.94L47.39-9.94Q47.56-8.91 47.88-8.23 48.19-7.54 48.74-7.13 49.29-6.71 50.11-6.53 50.93-6.35 52.08-6.35L52.08-6.35Q51.95-5.76 51.83-4.94 51.71-4.13 51.71-3.27L51.71-3.27Q51.71-2.34 51.82-1.48 51.93-0.61 52.08 0L52.08 0Q51.37-0.15 50.29-0.26 49.22-0.37 47.95-0.45 46.68-0.54 45.32-0.57 43.97-0.61 42.72-0.61L42.72-0.61Q41.48-0.61 40.12-0.57 38.77-0.54 37.5-0.45 36.23-0.37 35.16-0.26 34.08-0.15 33.4 0L33.4 0Q33.54-0.61 33.65-1.48 33.76-2.34 33.76-3.27L33.76-3.27Q33.76-4.13 33.64-4.94 33.52-5.76 33.4-6.35L33.4-6.35Q35.84-6.35 36.96-7.19 38.09-8.03 38.09-10.13L38.09-10.13Q38.09-11.82 38-13.65 37.92-15.48 37.76-17.15 37.6-18.82 37.37-20.2 37.13-21.58 36.84-22.36L36.84-22.36Q36.3-22.36 35.63-21.58 34.96-20.8 34.24-19.58 33.52-18.36 32.84-16.89 32.15-15.43 31.62-14.04 31.08-12.65 30.74-11.52 30.4-10.4 30.37-9.89L30.37-9.89Q29.69-10.11 28.83-10.18 27.98-10.25 27.1-10.25L27.1-10.25Q26.22-10.25 25.37-10.18 24.51-10.11 23.83-9.89L23.83-9.89Q23.8-10.38 23.46-11.47 23.12-12.57 22.58-13.93 22.05-15.28 21.37-16.72 20.7-18.16 20-19.35 19.29-20.53 18.6-21.31 17.92-22.09 17.38-22.12L17.38-22.12Q17.14-21.34 16.98-19.97 16.82-18.6 16.74-16.94 16.65-15.28 16.63-13.46 16.6-11.65 16.6-9.94L16.6-9.94Q16.6-8.89 16.88-8.19 17.16-7.5 17.74-7.09 18.31-6.69 19.19-6.52 20.07-6.35 21.29-6.35L21.29-6.35Q21.17-5.76 21.04-4.94 20.92-4.13 20.92-3.27L20.92-3.27Q20.92-2.34 21.03-1.48 21.14-0.61 21.29 0L21.29 0Q20.58-0.15 19.51-0.26 18.43-0.37 17.16-0.45 15.89-0.54 14.55-0.57 13.21-0.61 11.96-0.61L11.96-0.61Q10.72-0.61 9.36-0.57 8.01-0.54 6.74-0.45 5.47-0.37 4.38-0.26 3.3-0.15 2.61 0ZM56.86-4.05L56.86-4.05Q57.35-4.64 57.61-5.69 57.88-6.74 58.02-7.97 58.15-9.2 58.19-10.45 58.23-11.69 58.23-12.65L58.23-12.65Q58.23-13.65 58.15-14.92 58.08-16.19 57.92-17.4 57.76-18.6 57.5-19.58 57.25-20.56 56.88-21L56.88-21Q57.96-21 59.25-21.55 60.54-22.09 61.7-22.91 62.86-23.73 63.72-24.66 64.57-25.59 64.79-26.37L64.79-26.37Q66.14-25.9 67.97-25.71 69.8-25.51 72.51-25.51L72.51-25.51Q74.41-25.51 75.66-25.73 76.9-25.95 77.68-26.37L77.68-26.37Q78.1-25.51 79.06-24.83 80.03-24.15 81.16-23.66 82.3-23.17 83.43-22.89 84.57-22.61 85.3-22.58L85.3-22.58Q85.1-22.17 84.95-21.68 84.79-21.19 84.68-20.53 84.57-19.87 84.51-18.98 84.45-18.09 84.45-16.89L84.45-16.89Q84.45-16.06 84.48-15.28 84.52-14.5 84.59-13.84 84.67-13.18 84.75-12.68 84.84-12.18 84.93-11.94L84.93-11.94Q84.32-11.99 83.3-12.02 82.27-12.06 81.05-12.1 79.83-12.13 78.5-12.15 77.17-12.16 75.97-12.16L75.97-12.16Q74.56-12.16 73.15-12.15 71.75-12.13 70.26-12.13L70.26-12.13Q69.02-12.13 68.28-11.91 67.55-11.69 67.17-11.32 66.79-10.94 66.68-10.4 66.57-9.86 66.57-9.23L66.57-9.23Q66.57-8.28 67.04-7.5 67.5-6.71 68.31-6.16 69.11-5.62 70.21-5.31 71.31-5 72.56-5L72.56-5Q73.58-5 74.19-5.31 74.8-5.62 75.13-6.13 75.46-6.64 75.56-7.32 75.66-8.01 75.66-8.79L75.66-8.79Q75.95-8.69 76.54-8.62 77.12-8.54 77.81-8.51 78.49-8.47 79.18-8.45 79.88-8.42 80.39-8.42L80.39-8.42Q80.91-8.42 81.56-8.45 82.22-8.47 82.87-8.51 83.52-8.54 84.08-8.62 84.64-8.69 84.98-8.79L84.98-8.79Q84.93-8.52 84.87-8.07 84.81-7.62 84.78-7.1 84.74-6.59 84.71-6.08 84.69-5.57 84.69-5.22L84.69-5.22Q84.69-4.03 84.78-3.31 84.86-2.59 85.06-2.03L85.06-2.03 84.62-2.03Q83.62-2.03 82.57-1.84 81.52-1.66 80.54-1.35 79.56-1.05 78.71-0.63 77.85-0.22 77.24 0.24L77.24 0.24Q76.9 0.02 76.3-0.13 75.71-0.29 74.99-0.4 74.27-0.51 73.47-0.56 72.68-0.61 71.95-0.61L71.95-0.61Q71.07-0.61 70.11-0.54 69.16-0.46 68.3-0.33 67.43-0.2 66.72-0.05 66.01 0.1 65.62 0.24L65.62 0.24Q65.4-0.39 64.49-1.15 63.57-1.9 62.35-2.55 61.13-3.2 59.76-3.64 58.4-4.08 57.27-4.08L57.27-4.08Q57.15-4.08 57.05-4.06 56.96-4.05 56.86-4.05ZM66.6-16.55L73.09-16.55Q74.07-16.55 74.64-16.63 75.22-16.7 75.52-16.92 75.83-17.14 75.91-17.52 76-17.9 76-18.53L76-18.53Q76-19.7 75-20.43 74-21.17 71.87-21.17L71.87-21.17Q70.55-21.17 69.6-20.95 68.65-20.73 68-20.19 67.36-19.65 67.01-18.77 66.67-17.9 66.6-16.55L66.6-16.55ZM111.49-5.52L111.49-5.52Q111.71-5.79 111.83-6.29 111.96-6.79 112.02-7.47 112.08-8.15 112.09-8.96 112.1-9.77 112.1-10.62L112.1-10.62Q112.1-11.28 112.07-12.04 112.03-12.79 111.94-13.49 111.86-14.18 111.75-14.75 111.64-15.31 111.49-15.58L111.49-15.58Q111.96-15.58 112.71-15.81 113.47-16.04 114.26-16.49 115.06-16.94 115.75-17.59 116.45-18.24 116.79-19.09L116.79-19.09Q116.4-19.6 115.96-20.01 115.52-20.41 115.1-20.73 114.69-21.04 114.31-21.28 113.93-21.51 113.64-21.68L113.64-21.68Q113.79-22.02 113.91-22.57 114.03-23.12 114.12-23.82 114.2-24.51 114.25-25.28 114.3-26.05 114.3-26.83L114.3-26.83Q114.3-28.22 114.16-29.41 114.03-30.59 113.76-31.13L113.76-31.13Q113.88-31.1 113.91-31.1 113.93-31.1 114.06-31.1L114.06-31.1Q114.71-31.1 115.73-31.48 116.74-31.86 117.73-32.45 118.72-33.03 119.51-33.75 120.31-34.47 120.52-35.16L120.52-35.16Q120.82-34.96 121.39-34.8 121.97-34.64 122.72-34.53 123.48-34.42 124.37-34.36 125.26-34.3 126.19-34.3L126.19-34.3Q126.99-34.3 127.74-34.36 128.48-34.42 129.11-34.53 129.73-34.64 130.19-34.8 130.66-34.96 130.88-35.16L130.88-35.16Q131.12-34.47 132.04-33.74 132.95-33.01 134.09-32.4 135.22-31.79 136.38-31.4 137.54-31.01 138.3-31.01L138.3-31.01Q138.37-31.01 138.46-31.01 138.54-31.01 138.62-31.03L138.62-31.03Q138.35-30.49 138.21-29.31 138.08-28.13 138.08-26.73L138.08-26.73Q138.08-25.95 138.13-25.18 138.18-24.41 138.26-23.72 138.35-23.02 138.47-22.47 138.59-21.92 138.74-21.58L138.74-21.58Q138.18-21.36 137.42-20.92 136.66-20.48 135.87-19.89 135.08-19.29 134.32-18.53 133.56-17.77 133-16.92L133-16.92Q133.71-16.19 134.5-15.45 135.3-14.72 136.08-14.09L136.08-14.09Q137.08-14.84 137.91-15.83 138.74-16.82 139.34-17.92 139.93-19.02 140.26-20.19 140.59-21.36 140.59-22.46L140.59-22.46Q140.59-23.29 140.42-23.95L140.42-23.95Q140.52-23.83 140.93-23.71 141.35-23.58 142.01-23.47 142.67-23.36 143.5-23.29 144.33-23.22 145.23-23.22L145.23-23.22Q145.89-23.22 146.66-23.24 147.43-23.27 148.19-23.34 148.94-23.41 149.63-23.51 150.31-23.61 150.8-23.75L150.8-23.75Q150.65-23.49 150.54-23.02 150.43-22.56 150.35-22.03 150.26-21.51 150.22-20.95 150.19-20.39 150.19-19.92L150.19-19.92Q150.19-19.14 150.22-18.55 150.26-17.97 150.33-17.48 150.41-16.99 150.48-16.58 150.55-16.16 150.63-15.75L150.63-15.75Q149.92-15.92 149.05-16.03 148.19-16.14 147.6-16.14L147.6-16.14Q146.53-16.14 145.48-15.69 144.43-15.23 143.45-14.5 142.47-13.77 141.63-12.84 140.79-11.91 140.1-10.96L140.1-10.96Q140.62-10.25 141.3-9.57 141.98-8.89 142.83-8.33 143.67-7.76 144.66-7.42 145.65-7.08 146.79-7.08L146.79-7.08Q147.45-7.08 147.95-7.1 148.45-7.13 148.88-7.18 149.31-7.23 149.68-7.32 150.04-7.42 150.43-7.57L150.43-7.57Q150.26-6.64 150.16-5.66 150.07-4.69 150.07-3.59L150.07-3.59Q150.07-2.49 150.19-1.54 150.31-0.59 150.43 0L150.43 0Q149.94-0.17 149.08-0.29 148.21-0.42 147.22-0.49 146.23-0.56 145.27-0.59 144.3-0.61 143.64-0.61L143.64-0.61Q142.55-0.61 141.51-0.57 140.47-0.54 139.64-0.46 138.81-0.39 138.24-0.27 137.66-0.15 137.49 0L137.49 0Q137.47-0.63 137.21-1.22 136.96-1.81 136.55-2.34 136.15-2.88 135.65-3.36 135.15-3.83 134.61-4.25L134.61-4.25Q133.68-3.42 132.76-2.27 131.83-1.12 131.24 0L131.24 0Q130.39-0.42 129.05-0.51 127.7-0.61 125.87-0.61L125.87-0.61Q123.8-0.61 122.16-0.49 120.52-0.37 119.43 0L119.43 0Q118.79-0.93 117.73-1.9 116.67-2.88 115.51-3.69 114.35-4.49 113.25-5 112.15-5.52 111.49-5.52ZM127.85-20.78L127.85-20.78Q128.24-21.04 128.65-21.64 129.07-22.24 129.42-22.96 129.78-23.68 130-24.41 130.22-25.15 130.22-25.71L130.22-25.71Q130.22-27.81 129.2-28.83 128.19-29.86 126.6-29.86L126.6-29.86Q125.14-29.86 124.3-28.97 123.45-28.08 123.45-26.54L123.45-26.54Q123.45-25.63 123.91-24.74 124.36-23.85 125.02-23.08 125.68-22.31 126.45-21.7 127.21-21.09 127.85-20.78ZM120.89-10.08L120.89-10.08Q120.89-8.91 121.21-8.06 121.53-7.2 122.1-6.63 122.67-6.05 123.44-5.79 124.21-5.52 125.09-5.52L125.09-5.52Q126.02-5.52 126.76-5.81 127.51-6.1 128.07-6.54 128.63-6.98 129.05-7.48 129.46-7.98 129.75-8.42L129.75-8.42Q129.68-8.62 129.2-9.11 128.73-9.59 128.02-10.22 127.31-10.84 126.47-11.54 125.63-12.23 124.85-12.82 124.06-13.4 123.43-13.81 122.8-14.21 122.48-14.28L122.48-14.28Q121.7-13.48 121.29-12.37 120.89-11.25 120.89-10.08ZM185.75 0L185.75 0Q185.9-0.61 186.01-1.48 186.12-2.34 186.12-3.27L186.12-3.27Q186.12-4.13 186-4.94 185.88-5.76 185.75-6.35L185.75-6.35Q186.85-6.35 187.68-6.52 188.51-6.69 189.07-7.09 189.64-7.5 189.92-8.19 190.2-8.89 190.2-9.94L190.2-9.94Q190.2-11.16 189.83-12.33 189.47-13.5 188.66-14.54 187.85-15.58 186.57-16.44 185.29-17.31 183.46-17.94L183.46-17.94Q183.8-18.07 183.94-18.42 184.07-18.77 184.07-19.29L184.07-19.29Q184.07-20.24 183.8-21.2 183.53-22.17 182.9-23.16 182.26-24.15 181.19-25.18 180.11-26.22 178.48-27.32L178.48-27.32Q178.16-27.54 177.61-27.8 177.06-28.05 176.43-28.27 175.79-28.49 175.16-28.65 174.52-28.81 174.04-28.81L174.04-28.81Q174.16-29.39 174.22-30.16 174.28-30.93 174.28-31.81L174.28-31.81Q174.28-32.76 174.22-33.65 174.16-34.55 174.04-35.16L174.04-35.16Q174.94-35.01 176.15-34.86 177.36-34.72 178.72-34.58 180.09-34.45 181.57-34.38 183.04-34.3 184.53-34.3L184.53-34.3Q186.05-34.3 187.51-34.35 188.98-34.4 190.31-34.51 191.64-34.62 192.8-34.78 193.96-34.94 194.86-35.16L194.86-35.16Q194.79-34.74 194.73-33.85 194.67-32.96 194.67-31.86L194.67-31.86Q194.67-31.42 194.68-30.93 194.69-30.44 194.71-30.02 194.74-29.59 194.78-29.27 194.81-28.96 194.86-28.81L194.86-28.81Q194.05-28.81 193.3-28.76 192.54-28.71 191.98-28.52 191.42-28.32 191.08-27.94 190.73-27.56 190.73-26.88L190.73-26.88Q190.73-26.17 191.39-25.18 192.05-24.19 192.98-23.02 193.91-21.85 194.93-20.57 195.96-19.29 196.69-18.02L196.69-18.02Q197.52-19.19 198.6-20.46 199.67-21.73 200.62-22.94 201.57-24.15 202.23-25.2 202.89-26.25 202.89-27L202.89-27Q202.89-27.69 202.5-28.05 202.11-28.42 201.5-28.59 200.89-28.76 200.13-28.78 199.38-28.81 198.62-28.81L198.62-28.81Q198.64-28.96 198.68-29.28 198.72-29.61 198.74-30.03 198.77-30.44 198.79-30.92 198.82-31.4 198.82-31.86L198.82-31.86Q198.82-32.96 198.75-33.85 198.69-34.74 198.62-35.16L198.62-35.16Q200.7-34.69 202.86-34.5 205.02-34.3 207.24-34.3L207.24-34.3Q209.53-34.3 211.67-34.5 213.81-34.69 215.78-35.16L215.78-35.16Q215.64-34.55 215.59-33.65 215.54-32.76 215.54-31.81L215.54-31.81Q215.54-30.93 215.6-30.16 215.66-29.39 215.78-28.81L215.78-28.81Q215.44-28.81 214.89-28.66 214.34-28.52 213.73-28.27 213.12-28.03 212.51-27.71 211.9-27.39 211.44-27.05L211.44-27.05Q210.19-26.15 209.18-25.18 208.17-24.22 207.45-23.22 206.73-22.22 206.32-21.23 205.92-20.24 205.92-19.29L205.92-19.29Q205.92-18.87 206.04-18.46 206.16-18.04 206.46-17.94L206.46-17.94Q204.85-17.7 203.63-16.86 202.4-16.02 201.6-14.87 200.79-13.72 200.39-12.41 199.99-11.11 199.99-9.94L199.99-9.94Q199.99-8.89 200.22-8.19 200.45-7.5 200.99-7.09 201.53-6.69 202.37-6.52 203.21-6.35 204.43-6.35L204.43-6.35Q204.31-5.76 204.19-4.94 204.06-4.13 204.06-3.27L204.06-3.27Q204.06-2.34 204.17-1.48 204.28-0.61 204.43 0L204.43 0Q203.72-0.15 202.65-0.26 201.57-0.37 200.3-0.45 199.04-0.54 197.69-0.57 196.35-0.61 195.1-0.61L195.1-0.61Q193.86-0.61 192.5-0.57 191.15-0.54 189.88-0.45 188.61-0.37 187.52-0.26 186.44-0.15 185.75 0ZM218.52-4.05L218.52-4.05Q218.78-4.44 219.03-5.05 219.27-5.66 219.46-6.65 219.64-7.64 219.75-9.09 219.86-10.55 219.86-12.65L219.86-12.65Q219.86-14.84 219.75-16.21 219.64-17.58 219.46-18.44 219.27-19.31 219.03-19.85 218.78-20.39 218.54-20.9L218.54-20.9Q219.52-21 220.76-21.47 222.01-21.95 223.17-22.68 224.33-23.41 225.23-24.37 226.13-25.32 226.43-26.37L226.43-26.37Q226.86-26.17 227.69-26.01 228.53-25.85 229.62-25.74 230.72-25.63 232.02-25.57 233.31-25.51 234.7-25.51L234.7-25.51Q235.97-25.51 237.17-25.6 238.36-25.68 239.36-25.81 240.37-25.93 241.1-26.07 241.83-26.22 242.2-26.37L242.2-26.37Q242.49-25.32 243.42-24.37 244.35-23.41 245.53-22.68 246.71-21.95 247.95-21.47 249.18-21 250.08-20.9L250.08-20.9Q249.84-20.41 249.61-19.89 249.37-19.36 249.19-18.49 249.01-17.63 248.9-16.27 248.79-14.92 248.79-12.77L248.79-12.77Q248.79-10.64 248.86-9.17 248.94-7.69 249.08-6.69 249.23-5.69 249.48-5.08 249.74-4.47 250.11-4.05L250.11-4.05Q249.5-4.05 248.72-3.87 247.93-3.69 247.09-3.38 246.25-3.08 245.43-2.66 244.61-2.25 243.93-1.77 243.25-1.29 242.76-0.78 242.27-0.27 242.1 0.24L242.1 0.24Q241.64 0.07 240.85-0.07 240.07-0.22 239.05-0.34 238.02-0.46 236.8-0.54 235.58-0.61 234.24-0.61L234.24-0.61Q232.92-0.61 231.71-0.54 230.5-0.46 229.49-0.35 228.48-0.24 227.71-0.09 226.94 0.07 226.52 0.24L226.52 0.24Q226.11-0.66 225.13-1.44 224.15-2.22 222.98-2.81 221.81-3.39 220.6-3.72 219.39-4.05 218.52-4.05ZM229.62-12.74L229.62-12.74Q229.62-10.67 229.88-9.18 230.14-7.69 230.72-6.74 231.31-5.79 232.24-5.33 233.16-4.88 234.51-4.88L234.51-4.88Q235.92-4.88 236.83-5.48 237.73-6.08 238.24-7.13 238.75-8.18 238.95-9.62 239.15-11.06 239.15-12.74L239.15-12.74Q239.15-14.43 238.95-15.86 238.75-17.29 238.24-18.32 237.73-19.36 236.83-19.93 235.92-20.51 234.51-20.51L234.51-20.51Q233.16-20.51 232.24-20.07 231.31-19.63 230.72-18.69 230.14-17.75 229.88-16.28 229.62-14.82 229.62-12.74ZM257.14-5.03L257.14-5.03Q257.92-6.01 258.21-7.52 258.5-9.03 258.48-11.16L258.48-11.16 258.43-15.99Q258.41-17.04 258.19-17.66 257.97-18.29 257.55-18.62 257.14-18.95 256.53-19.06 255.92-19.17 255.13-19.17L255.13-19.17 254.38-19.17Q254.57-19.65 254.72-20.52 254.87-21.39 254.87-22.34L254.87-22.34Q254.87-23.27 254.73-24.13 254.6-25 254.38-25.51L254.38-25.51Q255.13-25.39 256.33-25.34 257.53-25.29 258.97-25.29L258.97-25.29Q260.33-25.29 261.81-25.35 263.29-25.42 264.66-25.54 266.02-25.66 267.19-25.87 268.37-26.07 269.15-26.37L269.15-26.37Q268.66-25.42 268.35-24.21 268.05-23 267.88-21.63 267.71-20.26 267.66-18.79 267.61-17.31 267.61-15.82L267.61-15.82 267.61-11.57Q267.61-10.62 267.73-9.74 267.85-8.86 268.22-8.17 268.59-7.47 269.25-7.06 269.9-6.64 270.98-6.64L270.98-6.64Q272.08-6.64 273.21-6.86 274.35-7.08 275.29-7.63 276.23-8.18 276.81-9.11 277.4-10.03 277.4-11.43L277.4-11.43 277.4-15.99Q277.38-16.92 277.24-17.53 277.11-18.14 276.72-18.51 276.33-18.87 275.63-19.02 274.93-19.17 273.76-19.17L273.76-19.17 273.25-19.17Q273.44-19.65 273.59-20.52 273.74-21.39 273.74-22.34L273.74-22.34Q273.74-23.27 273.6-24.13 273.47-25 273.25-25.51L273.25-25.51Q274.01-25.39 275.2-25.34 276.4-25.29 277.84-25.29L277.84-25.29Q279.21-25.29 280.68-25.35 282.16-25.42 283.53-25.54 284.89-25.66 286.07-25.87 287.24-26.07 288.02-26.37L288.02-26.37Q287.51-25.78 287.19-24.96 286.87-24.15 286.71-23.16 286.55-22.17 286.51-21.04 286.46-19.92 286.46-18.77L286.46-18.77Q286.46-18.02 286.47-17.27 286.48-16.53 286.48-15.82L286.48-15.82 286.46-9.52Q286.46-8.52 286.52-7.9 286.58-7.28 286.95-6.93 287.31-6.59 288.11-6.47 288.9-6.35 290.36-6.35L290.36-6.35Q290.17-5.79 290.06-4.97 289.95-4.15 289.95-3.32L289.95-3.32Q289.95-2.39 290.03-1.48 290.12-0.56 290.36 0L290.36 0Q289.78-0.27 288.46-0.44 287.14-0.61 285.58-0.61L285.58-0.61Q283.82-0.61 282.38-0.44 280.94-0.27 280.16 0L280.16 0Q280.16-0.85 280-1.51 279.84-2.17 279.6-2.69 279.35-3.2 279.04-3.56 278.72-3.93 278.4-4.2L278.4-4.2Q277.38-4 276.42-3.54 275.47-3.08 274.68-2.48 273.88-1.88 273.32-1.22 272.76-0.56 272.54 0L272.54 0Q272.35-0.15 271.8-0.26 271.25-0.37 270.53-0.45 269.81-0.54 269-0.57 268.2-0.61 267.46-0.61L267.46-0.61Q266.73-0.61 265.94-0.57 265.14-0.54 264.39-0.45 263.63-0.37 263.01-0.26 262.38-0.15 262.02 0L262.02 0Q261.8-0.85 261.35-1.67 260.9-2.49 260.26-3.17 259.63-3.86 258.83-4.35 258.04-4.83 257.14-5.03Z" opacity="1" transform="matrix(1,0,0,1,0,0)" fill="#000000" class="wordmark-text-0" data-fill-palette-color="primary" id="text-0"></path></svg></g></svg></g><g transform="matrix(1,0,0,1,0,27.065855739373887)"><svg viewBox="0 0 192 14.59669127004327" height="14.59669127004327" width="192"><g transform="matrix(1,0,0,1,0,0)"><svg width="192" viewBox="4.5 -35 468.27 35.6" height="14.59669127004327" data-palette-color="#58454b"><path d="M25.5 0L4.5 0 5-4 5-31 4.5-35 9.75-35 9.25-31 9.25-3.9 22.5-3.9 25.5-4.4 25.5 0ZM42.26-12.8L42.26-12.8Q42.26-17.75 43.88-20.68 45.51-23.6 48.16-24.85 50.81-26.1 53.81-26.1L53.81-26.1Q57.26-26.1 59.58-24.73 61.91-23.35 63.08-20.83 64.26-18.3 64.26-14.8L64.26-14.8Q64.26-13.8 64.16-12.95 64.06-12.1 63.91-11.35L63.91-11.35 44.46-11.35 44.46-12.25 48.96-14.75 60.01-14.75Q60.01-17 59.53-18.75 59.06-20.5 57.71-21.5 56.36-22.5 53.76-22.5L53.76-22.5Q51.06-22.5 49.48-21.33 47.91-20.15 47.23-18.05 46.56-15.95 46.56-13.15L46.56-13.15Q46.56-9.8 47.31-7.75 48.06-5.7 49.31-4.7 50.56-3.7 52.06-3.35 53.56-3 55.06-3L55.06-3Q57.41-3 59.13-3.48 60.86-3.95 62.21-4.75L62.21-4.75 63.01-4.25 63.01-0.65Q61.46-0.1 59.58 0.25 57.71 0.6 55.51 0.6L55.51 0.6Q53.11 0.6 50.73 0.03 48.36-0.55 46.46-2 44.56-3.45 43.41-6.08 42.26-8.7 42.26-12.8ZM83.46-7.15L83.46-7.15 83.46-29.1 83.21-32.6 87.91-32.6 87.66-29.1 87.66-7.25Q87.66-4.85 88.74-3.93 89.81-3 91.91-3L91.91-3Q92.91-3 93.64-3.2 94.36-3.4 95.01-3.75L95.01-3.75 95.81-3.25 95.81-0.15Q94.71 0.25 93.59 0.43 92.46 0.6 91.41 0.6L91.41 0.6Q89.41 0.6 87.59-0.08 85.76-0.75 84.61-2.43 83.46-4.1 83.46-7.15ZM81.66-22L79.16-21.75 79.16-25.5 82.36-25.5 85.56-24 88.76-25.5 95.31-25.5 95.31-21.75 92.81-22 81.66-22ZM148.82 0.6L148.82 0.6Q146.57 0.6 144.25-0.03 141.92-0.65 139.97-2.18 138.02-3.7 136.82-6.28 135.62-8.85 135.62-12.75L135.62-12.75Q135.62-16.5 136.72-19.05 137.82-21.6 139.7-23.15 141.57-24.7 143.92-25.4 146.27-26.1 148.77-26.1L148.77-26.1Q150.62-26.1 152.07-25.8 153.52-25.5 154.77-24.95L154.77-24.95 154.77-21.35 153.97-20.85Q152.77-21.7 151.42-22.1 150.07-22.5 148.42-22.5L148.42-22.5Q146.22-22.5 144.27-21.63 142.32-20.75 141.12-18.65 139.92-16.55 139.92-12.85L139.92-12.85Q139.92-9.9 140.7-7.98 141.47-6.05 142.75-4.98 144.02-3.9 145.55-3.45 147.07-3 148.52-3L148.52-3Q150.42-3 151.9-3.55 153.37-4.1 154.32-4.75L154.32-4.75 155.12-4.25 155.12-0.65Q153.72-0.05 152.15 0.28 150.57 0.6 148.82 0.6ZM183.73 0.6L183.73 0.6Q180.73 0.6 177.98-0.7 175.23-2 173.5-4.95 171.78-7.9 171.78-12.75L171.78-12.75Q171.78-16.45 172.78-19 173.78-21.55 175.48-23.13 177.18-24.7 179.33-25.4 181.48-26.1 183.73-26.1L183.73-26.1Q185.98-26.1 188.13-25.4 190.28-24.7 191.98-23.13 193.68-21.55 194.68-19 195.68-16.45 195.68-12.75L195.68-12.75Q195.68-7.9 193.95-4.95 192.23-2 189.5-0.7 186.78 0.6 183.73 0.6ZM183.73-3L183.73-3Q187.28-3 189.33-5.2 191.38-7.4 191.38-12.85L191.38-12.85Q191.38-16.5 190.45-18.6 189.53-20.7 187.83-21.6 186.13-22.5 183.73-22.5L183.73-22.5Q181.33-22.5 179.63-21.6 177.93-20.7 177-18.6 176.08-16.5 176.08-12.85L176.08-12.85Q176.08-7.4 178.13-5.2 180.18-3 183.73-3ZM235.83 0L230.63 0 231.13-4 231.13-16.75Q231.13-19.5 229.58-20.9 228.03-22.3 224.98-22.3L224.98-22.3Q222.58-22.3 220.88-21.6 219.18-20.9 218.11-20.03 217.03-19.15 216.48-18.55L216.48-18.55 216.48-21.45 221.88-25.55Q222.88-25.8 223.93-25.95 224.98-26.1 226.08-26.1L226.08-26.1Q228.48-26.1 230.58-25.28 232.68-24.45 234.01-22.45 235.33-20.45 235.33-16.9L235.33-16.9 235.33-4 235.83 0ZM218.43 0L213.23 0 213.73-4 213.73-21.6 213.23-25.5 217.23-25.5 217.93-22.55 217.93-4 218.43 0ZM276.59 0L271.39 0 271.89-4 271.89-16.75Q271.89-19.5 270.34-20.9 268.79-22.3 265.74-22.3L265.74-22.3Q263.34-22.3 261.64-21.6 259.94-20.9 258.86-20.03 257.79-19.15 257.24-18.55L257.24-18.55 257.24-21.45 262.64-25.55Q263.64-25.8 264.69-25.95 265.74-26.1 266.84-26.1L266.84-26.1Q269.24-26.1 271.34-25.28 273.44-24.45 274.76-22.45 276.09-20.45 276.09-16.9L276.09-16.9 276.09-4 276.59 0ZM259.19 0L253.99 0 254.49-4 254.49-21.6 253.99-25.5 257.99-25.5 258.69-22.55 258.69-4 259.19 0ZM293.64-12.8L293.64-12.8Q293.64-17.75 295.27-20.68 296.89-23.6 299.54-24.85 302.19-26.1 305.19-26.1L305.19-26.1Q308.64-26.1 310.97-24.73 313.29-23.35 314.47-20.83 315.64-18.3 315.64-14.8L315.64-14.8Q315.64-13.8 315.54-12.95 315.44-12.1 315.29-11.35L315.29-11.35 295.84-11.35 295.84-12.25 300.34-14.75 311.39-14.75Q311.39-17 310.92-18.75 310.44-20.5 309.09-21.5 307.74-22.5 305.14-22.5L305.14-22.5Q302.44-22.5 300.87-21.33 299.29-20.15 298.62-18.05 297.94-15.95 297.94-13.15L297.94-13.15Q297.94-9.8 298.69-7.75 299.44-5.7 300.69-4.7 301.94-3.7 303.44-3.35 304.94-3 306.44-3L306.44-3Q308.79-3 310.52-3.48 312.24-3.95 313.59-4.75L313.59-4.75 314.39-4.25 314.39-0.65Q312.84-0.1 310.97 0.25 309.09 0.6 306.89 0.6L306.89 0.6Q304.49 0.6 302.12 0.03 299.74-0.55 297.84-2 295.94-3.45 294.79-6.08 293.64-8.7 293.64-12.8ZM344.95 0.6L344.95 0.6Q342.7 0.6 340.37-0.03 338.05-0.65 336.1-2.18 334.15-3.7 332.95-6.28 331.75-8.85 331.75-12.75L331.75-12.75Q331.75-16.5 332.85-19.05 333.95-21.6 335.82-23.15 337.7-24.7 340.05-25.4 342.4-26.1 344.9-26.1L344.9-26.1Q346.75-26.1 348.2-25.8 349.65-25.5 350.9-24.95L350.9-24.95 350.9-21.35 350.1-20.85Q348.9-21.7 347.55-22.1 346.2-22.5 344.55-22.5L344.55-22.5Q342.35-22.5 340.4-21.63 338.45-20.75 337.25-18.65 336.05-16.55 336.05-12.85L336.05-12.85Q336.05-9.9 336.82-7.98 337.6-6.05 338.87-4.98 340.15-3.9 341.67-3.45 343.2-3 344.65-3L344.65-3Q346.55-3 348.02-3.55 349.5-4.1 350.45-4.75L350.45-4.75 351.25-4.25 351.25-0.65Q349.85-0.05 348.27 0.28 346.7 0.6 344.95 0.6ZM371-7.15L371-7.15 371-29.1 370.75-32.6 375.45-32.6 375.2-29.1 375.2-7.25Q375.2-4.85 376.28-3.93 377.35-3 379.45-3L379.45-3Q380.45-3 381.18-3.2 381.9-3.4 382.55-3.75L382.55-3.75 383.35-3.25 383.35-0.15Q382.25 0.25 381.13 0.43 380 0.6 378.95 0.6L378.95 0.6Q376.95 0.6 375.13-0.08 373.3-0.75 372.15-2.43 371-4.1 371-7.15ZM369.2-22L366.7-21.75 366.7-25.5 369.9-25.5 373.1-24 376.3-25.5 382.85-25.5 382.85-21.75 380.35-22 369.2-22ZM402.71 0.6L402.71 0.6Q401.36 0.6 400.46-0.2 399.56-1 399.56-2.55L399.56-2.55Q399.56-4.05 400.46-4.88 401.36-5.7 402.71-5.7L402.71-5.7Q404.01-5.7 404.93-4.88 405.86-4.05 405.86-2.55L405.86-2.55Q405.86-1 404.93-0.2 404.01 0.6 402.71 0.6ZM425.01 0.6L425.01 0.6Q423.66 0.6 422.76-0.2 421.86-1 421.86-2.55L421.86-2.55Q421.86-4.05 422.76-4.88 423.66-5.7 425.01-5.7L425.01-5.7Q426.31-5.7 427.24-4.88 428.16-4.05 428.16-2.55L428.16-2.55Q428.16-1 427.24-0.2 426.31 0.6 425.01 0.6ZM447.32 0.6L447.32 0.6Q445.97 0.6 445.07-0.2 444.17-1 444.17-2.55L444.17-2.55Q444.17-4.05 445.07-4.88 445.97-5.7 447.32-5.7L447.32-5.7Q448.62-5.7 449.54-4.88 450.47-4.05 450.47-2.55L450.47-2.55Q450.47-1 449.54-0.2 448.62 0.6 447.32 0.6ZM469.62 0.6L469.62 0.6Q468.27 0.6 467.37-0.2 466.47-1 466.47-2.55L466.47-2.55Q466.47-4.05 467.37-4.88 468.27-5.7 469.62-5.7L469.62-5.7Q470.92-5.7 471.85-4.88 472.77-4.05 472.77-2.55L472.77-2.55Q472.77-1 471.85-0.2 470.92 0.6 469.62 0.6Z" opacity="1" transform="matrix(1,0,0,1,0,0)" fill="#000000" class="slogan-text-1" data-fill-palette-color="secondary" id="text-1"></path></svg></g></svg></g></svg></g></svg></g><g transform="matrix(1,0,0,1,58.15339340514323,0)"><svg viewBox="0 0 75.69321318971355 57.57763996701451" height="57.57763996701451" width="75.69321318971355"><g><svg xmlns="http://www.w3.org/2000/svg" data-name="Layer 1" viewBox="0 15.310000000000002 128 97.36590118464422" x="0" y="0" height="57.57763996701451" width="75.69321318971355" class="icon-icon-0" data-fill-palette-color="accent" id="icon-0"><path d="M36 48.78a12.2 12.2 0 1 0-12.2-12.2A12.21 12.21 0 0 0 36 48.78Zm0-20.4a8.2 8.2 0 1 1-8.2 8.2A8.21 8.21 0 0 1 36 28.38Z" fill="#000000" data-fill-palette-color="accent"></path><path d="M36 87.31q1.75 0 3.47-0.17c0.76-0.07 1.52-0.18 2.27-0.3l41.33 25.54a2 2 0 0 0 2.5-0.33L114 82l2.13 1.06A2 2 0 0 0 119 81.56L120.93 66A11.28 11.28 0 0 0 127.09 56l0.85-19.94a6 6 0 0 0 0.06-0.78v-12a6 6 0 0 0-10-4.46 6 6 0 0 0-8 0 6 6 0 0 0-8 0 6 6 0 0 0-10 4.46v12c0 0.14 0 0.27 0 0.41v5l-1.65-2.27a3.67 3.67 0 0 0-0.6-0.71 3.67 3.67 0 0 0-2-1.29l-9.26-3-0.21-0.06a3.78 3.78 0 0 0-4.44 2.82l-0.75 3.31a3.63 3.63 0 0 0 0.5 2.76 3.73 3.73 0 0 0 2.22 1.6l6.36 2.3 5.46 7.52c0.69 1 1.26 1.65 1.76 2.27a13.28 13.28 0 0 1 2.53 4.14A11.47 11.47 0 0 0 99 66.71v6.6a2 2 0 0 0 1.11 1.79l1.37 0.69L83 94.9l-20.78-19A35.58 35.58 0 0 0 72 51.31a36 36 0 1 0-36 36Zm10.3-5.7l-0.78 0.25-0.63 0.19-0.8 0.22-0.63 0.16-0.83 0.18-0.63 0.13-0.85 0.14-0.62 0.1-0.9 0.11-0.59 0.07-1 0.07-0.5 0q-0.76 0-1.52 0t-1.64 0l-0.54 0-1.08-0.09-0.65-0.08-1-0.13-0.69-0.12-0.91-0.17-0.7-0.16L28 82.28l-0.7-0.2-0.85-0.25-0.7-0.23-0.83-0.29L24.19 81l-0.81-0.33-0.67-0.3L21.91 80l-0.66-0.34-0.77-0.41-0.64-0.37-0.75-0.45-0.63-0.4-0.72-0.49-0.61-0.43-0.7-0.53-0.59-0.47-0.67-0.56-0.57-0.5L14 74.5 13.42 74l-0.19-0.2A22.94 22.94 0 0 1 57.3 75.17l-0.16 0.14-0.55 0.47-0.6 0.5-0.57 0.44-0.63 0.47-0.58 0.41-0.65 0.44-0.59 0.38-0.68 0.42-0.6 0.35-0.7 0.38-0.61 0.32-0.72 0.35-0.62 0.29-0.74 0.32-0.63 0.26-0.76 0.28Zm69.07-3.36L103 72.08V67.31h13.73ZM120 23.31a2 2 0 0 1 4 0V34.69l0 1a2 2 0 0 1-4-0.41Zm-8 0a2 2 0 0 1 4 0v12a2 2 0 0 1-4 0Zm-8 0a2 2 0 0 1 4 0v12a2 2 0 0 1-4 0Zm-8 0a2 2 0 0 1 4 0v12a2 2 0 0 1-4 0.2v-0.79a2 2 0 0 0 0-0.2Zm-0.37 35.3a17.06 17.06 0 0 0-3.14-5.18c-0.47-0.58-1-1.23-1.62-2.09l-5.82-8a2 2 0 0 0-0.94-0.71l-7-2.55h0l0.61-2.68 8.93 2.9 0.11 0a2 2 0 0 0 0.36 0.37l0 0 5.33 7.34A2 2 0 0 0 96 46.88V41a5.94 5.94 0 0 0 6-1.2 6 6 0 0 0 8 0 6 6 0 0 0 8 0 6 6 0 0 0 5.73 1.28l-0.63 14.89a7.51 7.51 0 0 1-7.62 7.37H102.73A7.68 7.68 0 0 1 95.63 58.61ZM81.78 99.17a2 2 0 0 0 2.79-0.09L105.19 77.7l0 0 5 2.51-26.45 28L47.21 85.53A35.68 35.68 0 0 0 59.35 78.7ZM36 19.31a32 32 0 0 1 32 32 31.61 31.61 0 0 1-7.53 20.61A26.91 26.91 0 0 0 10.26 70.3 32 32 0 0 1 36 19.31Z" fill="#000000" data-fill-palette-color="accent"></path><path d="M104.13 55.69v-0.12a1.38 1.38 0 0 1 1.38-1.37h7.88a1.38 1.38 0 0 1 1.38 1.38 2 2 0 0 0 4 0 5.38 5.38 0 0 0-5.37-5.37H105.5a5.38 5.38 0 0 0-5.37 5.38v0.13a2 2 0 0 0 4 0Z" fill="#000000" data-fill-palette-color="accent"></path></svg></g></svg></g><g></g></svg></g></svg></g></svg></g></svg></g><defs></defs></svg><rect width="320" height="360" fill="none" stroke="none" visibility="hidden"></rect></g></svg></g></svg>